<svg viewBox="0 0 150 150" xmlns="http://www.w3.org/2000/svg"><path fill="#a85e32" d="m62.8 101.8c-1-.6-2.2-.2-2.8.7l-1.5 2.6c-.6 1-.2 2.2.7 2.8 1 .6 2.2.2 2.8-.7l1.5-2.6c.6-1 .2-2.2-.7-2.8zm13.1 3.4c-1.1 0-2 .9-2 2v3c0 1.1.9 2 2 2s2-.9 2-2v-3c0-1.1-.9-2-2-2zm-25.4-13.6-2.6 1.5c-.9.6-1.2 1.7-.7 2.6.5 1 1.8 1.4 2.7.8l2.6-1.5c1-.6 1.3-1.8.8-2.7-.6-1-1.8-1.3-2.8-.7zm2-27.8-2.6-1.5c-.9-.5-2.1-.2-2.7.7s-.3 2.2.6 2.8 2.6 1.5 2.6 1.5c1 .6 2.2.2 2.8-.7s.2-2.2-.7-2.8zm-2.7 15.6c0-1.1-.9-2-2-2h-3c-1.1 0-2 .9-2 2s.9 2 2 2h3c1.1 0 2-.9 2-2zm39.1-22.3c1 .6 2.2.2 2.8-.7l1.5-2.6s0-.1 0-.2c.5-1 .1-2.2-.9-2.7s-2.2-.1-2.8.9l-1.5 2.6c-.6 1-.2 2.2.7 2.8zm-40-17.1c2.7-1.9 5.5-3.5 8.5-4.9-19.3-15.2-40.7 4.9-28.5 27 .1.4.3.8.4 1.1 2.7-5.8 6.4-11.2 10.8-15.8 2.7-2.8 5.6-5.2 8.7-7.4zm27 13.6c1.1 0 2-.9 2-2v-3c0-1.1-.9-2-2-2s-2 .9-2 2v3c0 1.1.9 2 2 2zm-17.4.2 1.5 2.6c.6.9 1.7 1.2 2.7.7s1.4-1.7.9-2.7l-1.5-2.6c0-.1-.1-.3-.2-.4-.7-.9-1.9-1.1-2.8-.5s-1.1 1.9-.5 2.8zm17.3-16.4c-9.5 0-18.6 3.1-26.1 8.9-18.5 14.3-21.8 40.6-7.4 58.9l-5.8 7.6c-1.3 1.7-1 4.2.8 5.6s4.3 1 5.6-.8l5.1-6.6c16 13.8 39.8 13.8 55.8 0l5.1 6.6c1.3 1.6 3.7 1.9 5.4.7 1.8-1.2 2.3-3.7 1-5.5l-5.7-7.4-.2-.2c5.8-7.4 9-16.5 9-25.8 0-23.2-19-42-42.4-42zm26.5 68.2c-14.6 14.5-38.3 14.5-52.9 0s-14.6-37.9 0-52.4 38.3-14.5 52.9 0c7 6.9 11 16.4 11 26.2s-3.9 19.2-11 26.2zm4.7-28.2h-3.1c-1.1 0-2 .9-2 2s.9 2 2 2h3.1c1.1 0 2-.9 2-2s-.9-2-2-2zm-12.7-42.3c2.9 1.4 5.8 3 8.4 4.9 3.1 2.2 6.1 4.7 8.7 7.4 2.5 2.6 4.8 5.5 6.8 8.5 1.6 2.3 2.9 4.8 4.1 7.3.2-.4.3-.7.4-1.1 12.3-22.1-9.2-42.2-28.5-27zm9.5 58-2.6-1.5c-1-.6-2.2-.2-2.8.7-.6 1-.2 2.2.7 2.8l2.6 1.5c.9.5 2 .2 2.6-.7s.3-2.2-.6-2.8zm-10.1-15.1-4-3.1c-.5-.4-1.2-.5-1.8-.2-.9.4-1.4 1.5-1 2.4h-6.8c-.5-.8-1.2-1.4-2-1.9v-8.8c.6.2 1.2.1 1.8-.2.8-.6 1-1.7.4-2.5l-3-4.1c-.4-.5-.9-.8-1.5-.7-.5 0-1 .3-1.4.7l-3.2 3.9c-.4.5-.5 1.3-.3 1.9.4.9 1.5 1.3 2.4.9v9.2c-.7.4-1.2.9-1.6 1.6-1.3 2.3-.5 5.2 1.8 6.5s5.3.5 6.6-1.7h6.8c-.3.6-.2 1.3.2 1.8.6.8 1.8.9 2.6.3l4-3.1c.4-.3.7-.9.7-1.4 0-.6-.3-1.1-.7-1.4zm7.5-10.8 2.7-1.5c1-.6 1.3-1.8.8-2.7-.6-1-1.8-1.3-2.8-.7l-2.7 1.5c-1 .6-1.3 1.8-.7 2.7.6 1 1.8 1.3 2.8.7zm-9.5 35.3c-.6-.9-1.7-1.2-2.7-.7s-1.4 1.7-.9 2.7l1.5 2.6s0 0 0 .1c.6.9 1.8 1.2 2.8.6s1.2-1.8.6-2.8l-1.5-2.6zm-15.8-97.5c-39.1-.5-71.5 32.1-70.9 70.6-.1 27.7 18 54.1 43.9 64.3 46 18.6 95.9-15.5 96-64.3.6-37.6-30.6-70.6-69.1-70.6zm0 137.5c-36.7 0-67.5-30.6-66.9-66.9-.1-35.8 30.8-65.8 66.9-65.7 36.6-.7 68.7 29 68.6 65.7.6 36.9-31.6 67.7-68.6 66.9z"/></svg>