<svg xmlns="http://www.w3.org/2000/svg" viewBox="0 0 300 300"><circle fill="#250C46" cx="150" cy="150" r="150"/><path d="M78.57 174.66c0-.5.08-1.01-.01-1.49-.28-1.43-2.22-2.54-3.62-2.07-.28.09-.54.39-.69.66-.44.79-1.13 1.13-1.97 1.4-.72.23-1.36.72-2.06 1.05-.37.17-.77.27-1.17.36-1.65.39-3.29.62-4.78 1.64-.86.59-2.16.5-3.23.84-.81.26-1.56.72-2.34 1.07-.45.2-.91.4-1.39.49-1.72.33-3.48.51-4.88 1.72a.46.46 0 0 1-.22.11c-2.35.31-4.57 1-6.74 2.01-1.32.61-2.79.79-4.11 1.62-1.18.74-2.77.79-4.17 1.21-.53.16-.98.53-1.49.76-.44.2-.93.3-1.37.5-.67.29-1.41.51-1.93.97-.3.26-.42.98-.33 1.42.3 1.42.79 2.79 1.12 4.21.29 1.21.75 2.29 1.75 3.08.81.64.99 1.55.93 2.47-.08 1.33-.29 2.65-.46 3.97-.05.41-.13.73-.53.16-.06-.09-.51-.02-.69.1-.19.13-.29.4-.38.63-.69 1.69-.68 1.69-2.59 1.41-.29-.04-.58-.08-.87-.05-2.72.27-5.68-3.51-4.96-6.06.19-.68.32-1.38.46-2.07.14-.73.46-1.25 1.16-1.65.49-.28.91-.87 1.14-1.41.61-1.46 1.18-2.94 1.58-4.47.18-.71.04-1.56-.17-2.29-.25-.88-.12-1.43.62-2.03 2.1-1.69 4.01-3.63 6.2-5.19 1.41-1.01 3.13-1.67 4.79-2.23 1.56-.52 3.29-.57 4.55-1.84.03-.03.07-.06.1-.07 2.53-.21 4.65-1.62 7.01-2.31 1.42-.42 2.95-.43 4.14-1.55.32-.31.92-.37 1.4-.45 1.51-.25 2.98-.48 4.21-1.58.44-.39 1.25-.38 1.9-.52 1.3-.27 2.61-.48 3.6-1.54.22-.23.68-.25 1.03-.34.52-.13 1.05-.25 1.57-.37.9-.21 1.24-.79 1.07-1.66-.18-.91.04-1.68.48-2.49.27-.5.12-1.22.28-1.81.14-.5.33-1.21.7-1.39.68-.32 1.5-.18 2 .54.33.48.54 1.04.91 1.49.29.35.72.75 1.11.78.28.02.65-.51.9-.85.53-.73.97-1.53 1.52-2.26.84-1.11 1.47-2.26 1.64-3.7.23-1.98.57-3.96 1.02-5.9.18-.76.78-1.42 1.18-2.13 1.03-1.83 1.95-3.72 3.11-5.46.74-1.11 1.79-2.02 2.75-2.97 1.08-1.07 2.12-2.23 3.36-3.08 1.47-1 2.66-2.49 4.52-2.89.04-.01.09-.01.12-.04 1.55-1.75 4.1-1.7 5.8-3.2.35-.31.89-.42 1.36-.58.62-.22 1.28-.35 1.89-.59 1.03-.42 1.75-.28 2.36.65.34.53.62.65 1.21.35 1.46-.75 2.94-1.44 4.43-2.13.29-.14.64-.14.97-.21.61-.14 1.24-.2 1.81-.44 1.68-.7 3.22-1.76 5.09-1.93.12-.01.24-.07.34-.14 1.46-.98 2.91-1.98 4.38-2.94.44-.28.93-.49 1.41-.69 1.21-.5 2.43-.98 3.64-1.47.3-.12.6-.32.92-.35 3.39-.34 6.79-.67 10.18-.95.78-.07 1.59-.01 2.37.1 1.03.14 1.95.2 2.68-.8.25-.34 1.02-.27 1.33-.59 1.29-1.36 3.11-1.81 4.57-2.82.9-.63 1.69-.95 2.71-.89.08 0 .18.03.25 0 1.3-.52 2.59-.52 3.96-.23.34.07.83-.5 1.22-.81.43-.35.81-.75 1.22-1.11.06-.05.18-.03.23-.08 1.48-1.48 3.53-2.03 5.18-3.24.42-.31.92-.52 1.42-.71 1.46-.54 2.93-1.06 4.41-1.54.59-.19 1.21-.38 1.82-.39 2.24-.03 4.5-.12 6.73.06 1.7.14 3.09-.22 4.36-1.34.38-.33.92-.49 1.4-.68 1.46-.56 2.92-1.1 4.39-1.64.47-.17.93-.4 1.41-.47 2.22-.29 4.45-.55 6.68-.77 3.72-.36 7.45-.63 11.17-1.04 1.81-.2 3.6-.59 5.08-1.82.26-.21.7-.22 1.06-.3 2.38-.53 4.75-1.15 7.15-1.56 1.84-.31 3.72-.45 5.58-.51 2.83-.08 5.68.15 8.49-.09 1.5-.12 2.93-.97 4.41-1.43.74-.23 1.52-.46 2.29-.49 1.24-.04 2.49.1 3.73.16.21.01.43.08.62.02 3.07-.97 6.21-.42 9.31-.44 4.16-.02 8.33.07 12.49.13.33 0 .66.07.99.13 2.07.41 2.32.66 2.41 2.7.01.2-.44.59-.67.6-.66.01-1.32-.12-1.98-.24-1.98-.38-3.94-.51-5.95-.1-2.11.43-4.28.58-6.4.98-.85.16-1.61.72-2.45.98-1.19.37-2.43.57-3.62.94-.6.19-1.12.63-1.7.91-.4.2-.83.41-1.26.47-2.81.4-5.24 1.62-7.33 3.47-1.68 1.48-3.07 3.18-3.39 5.51-.03.23-.13.49-.28.67-1.57 1.82-3.36 3.47-4.69 5.45-3.16 4.7-7.77 7.69-12.2 10.91-1.82 1.32-3.71 2.54-5.59 3.78-.52.34-1.08.64-1.65.88-.53.23-1.14.31-1.13 1.11.01.74-.2 1.52.74 1.91.49.2.61.55.17.96-.06.06-.18.14-.16.18.64 1.61-.84 1.14-1.46 1.42-1.07.47-2.2.64-3.19 1.48-.75.64-2.03.62-3.05.99-.55.2-1.04.59-1.57.86-.36.18-.73.37-1.12.46-1.41.34-2.86.58-3.94 1.71-.17.18-.53.18-.81.25-1.27.34-2.61.52-3.54 1.64-.17.2-.51.26-.78.37-.35.14-.74.21-1.04.41-1.53 1.05-3.02 2.15-4.55 3.2-.44.3-.99.42-1.46.68-2.34 1.29-4.8 2.22-7.4 2.89-1.3.34-2.37 1.45-2.32 3.03.04 1.26-.44 1.89-1.62 2.42-1.8.8-3.46 1.92-5.18 2.91-.22.12-.43.26-.67.34-2.07.64-4.18 1.1-6.25 1.8-2.14.73-4.59.59-6.9.79-2.44.21-4.91.23-7.32.59-1.4.21-2.75.89-4.08 1.44-1.77.74-3.62 1.4-5.23 2.42-1.41.89-3.09 1.02-4.4 1.86-1.99 1.27-4.41 1.22-6.33 2.31-1.59.9-3.33.94-4.91 1.64-.28.12-.65.03-.97.07-.13.02-.37.14-.37.17.22 1.08-.64.85-1.18.97-2.39.53-4.77 1.15-7.19 1.55-4.39.72-8.81 1.01-13.04-.72-1.56-.63-2.8-.34-4.09.47-.04.02.02.27.09.37.16.24.47.45.49.7.02.17-.3.51-.52.56-1.95.45-3.89.5-5.74-.39-.58-.28-1.12-.7-1.6-1.14-.85-.78-1.83-.78-2.35.19-1.15 2.11-3.15 3.23-5.02 4.52-.26.18-.65.34-.94.29-.7-.12-1.38-.37-2.07-.57.29-.46.5-1.02.89-1.37 1.01-.91 2.07-1.76 3.16-2.56.73-.54 1.16-1.97.72-2.76-.43-.76-1.47-.78-1.91-.02-.17.29-.28.6-.44.9-.39.74-.88 1.1-1.82.83-.78-.23-1.64-.26-2.47-.25-.26 0-.52.41-.78.63.93.93-.15.59-.45.68-.23.07-.51 0-.74.07-.54.17-.79.03-.75-.57.08-.42.06-.83.06-1.25zM260.8 91.23c2.36.1 4.72.19 7.08.3.16.01.31.15.47.24-.15.03-.31.08-.46.08-4.27 0-8.54-.02-12.81-.01-1.37 0-2.73.09-4.1.12-.15 0-.3-.05-.46-.08.16-.03.32-.08.48-.09 3.26-.24 6.52-.47 9.77-.71.02.06.03.1.03.15zm15.78 4.2c.21-.45.41-.89.62-1.34.18.47.36.93.52 1.41.05.15.07.36.01.48-.13.26-.34.48-.52.71-.17-.24-.37-.46-.5-.72-.06-.13 0-.32.01-.49-.04-.01-.09-.03-.14-.05z"/><path fill="#FFF" d="M172.53 151.27h-.74c-1.69.04-2.29.87-1.77 2.48.06.19.18.48.32.5.95.19 1.77.99 2.85.58.39-.14.8-.25 1.21-.29.71-.07 1.47-.17 1.63.85.17 1.08-.27 1.58-1.31 1.84-1.64.4-3.24.98-4.88 1.38-1.81.44-3.65.97-5.49 1.06-1.47.07-2.73.51-4.03 1.04-2.17.89-4.42 1.38-6.78 1.25-.95-.05-1.9-.12-2.85-.11-.29 0-.57.24-.86.37-.77.34-1.51.85-2.31.97-.97.14-1.99-.07-2.98-.11-.71-.03-1.42-.08-2.12-.01-.9.09-1.04.37-.72 1.22.36.96.14 1.33-.87 1.27-.81-.05-1.37.26-1.79.89-.48.72-1.14 1.05-2.01 1.04-.36 0-.81.05-1.06.26-1.08.92-2.23 1.42-3.72 1.37-.96-.04-1.97.23-2.56 1.26-.37.65-1.07.81-1.83.86-1.49.11-2.99.25-4.45.55-1.03.21-1.99.82-3.02 1.02-2.61.5-5.23.99-7.87 1.26-2.06.21-4.2.37-6.22.05-1.67-.26-3.25-1.19-4.81-1.96-.84-.41-1.56-1.08-2.3-1.68-1.36-1.1-2.98-1.61-4.62-2.07-.27-.08-.58-.1-.85-.05-.73.11-1.46.28-2.19.4-.99.17-1.13.51-.52 1.3.28.36.62.72.74 1.13.1.33.06.94-.14 1.08-.26.18-.94.15-1.12-.06-.86-1.06-2.4-1.58-2.53-3.25-.03-.41-.53-.81-.88-1.15-.81-.77-1.63-1.53-2.49-2.24-.3-.25-.72-.39-1.11-.47-.53-.11-1.08-.2-1.61-.15-.37.04-.72.32-1.07.5.23.39.42 1.08.71 1.12 1.71.26 2.68 1.63 3.95 2.52.94.67.9 1.62.03 2.14-.53.32-1.11.36-1.43-.21-.74-1.36-1.85-1.37-3.11-1.01-.28.08-.57.16-.86.15-.72-.02-1.06-.34-.85-1.13.13-.47.1-.99.14-1.49-.59.13-1.26.11-1.74.41-1.43.9-2.78 1.93-4.15 2.92-1.32.96-2.88 1.02-4.41 1.1-1.12.06-2.08.35-2.99 1.04-.5.38-1.21.47-1.83.69-2.15.76-4.3 1.52-6.46 2.26-2.39.81-4.85 1.46-7.17 2.44-1.23.52-2.39 1.04-3.73 1.28-.99.18-1.85 1.01-2.79 1.5-.97.51-1.9.38-2.22-.26-.55-1.1-.27-2.11.79-2.66.51-.27 1.08-.56 1.64-.58 2.1-.06 3.87-1.14 5.79-1.75.16-.05.31-.16.47-.16 1.9-.11 3.47-1.19 5.2-1.77.54-.18 1.12-.27 1.66-.47 1.43-.52 2.83-1.1 4.26-1.63 2.49-.91 5.06-1.64 7.44-2.76 1.28-.6 2.77-.88 3.8-1.63 1.1-.81 2.33-1.34 3.43-2.12.85-.6 1.8-1.08 2.92-.63.54.21.73-.14.65-.56-.09-.47-.24-.97-.51-1.35-.44-.61-.47-1.13.03-1.68.51-.55.97-1.16 1.55-1.61.65-.51.97-1.1.94-1.92-.1-2.33.39-4.53 1.36-6.66.37-.82.31-1.83.71-2.63 1.78-3.63 3.91-7.04 7.02-9.7 1.29-1.11 2.54-2.35 4.02-3.13 1.85-.97 3.31-2.64 5.51-3.03.71-.13 1.29-.88 1.99-1.23.5-.25 1.1-.45 1.64-.43.47.02 1.34.44 1.32.57-.11.61-.3 1.35-.73 1.72-1.07.9-2.27 1.64-3.46 2.38-.33.21-.78.22-1.17.32-.4.1-.83.14-1.18.33-.26.14-.4.48-.59.74.23.14.49.25.7.42.59.48 1.17.96 1.73 1.47.18.16.25.48.44.59.54.31 1.12.56 1.68.83.22-.5.49-.97.64-1.49.18-.64.14-1.36.42-1.94.29-.59.79-1.11 1.3-1.54.89-.74 1.86-1.38 2.8-2.05 1.61-1.15 3.17-2.4 4.87-3.4 1.38-.81 2.91-1.39 4.42-1.93.68-.24 1.04.28.7.95-.22.44-.56.82-.9 1.19-.57.61-1.19 1.17-1.76 1.77-.76.81-.73 1.35.03 1.99.56.47 1.68.38 2.15-.22.22-.29.33-.66.47-1.01.12-.31.12-.75.34-.92.92-.74 1.32-1.84 2-2.7 1.98-2.47 4.39-4.54 7.43-5.69 1.39-.53 2.77-1.17 4.22-1.49 1.15-.26 2.41-.61 3.45.6.67.78 2.4.37 3.04-.41.39-.48.99-.9 1.57-1.11 1.33-.48 2.7-.83 4.07-1.18.31-.08.69.09 1.04.15-.12.29-.19.6-.35.85-.7 1.05-.92 2.22-.81 3.45.02.26.31.65.52.68.24.04.67-.17.8-.39.8-1.35 1.51-2.75 2.33-4.09.29-.47.77-.84 1.22-1.18 1.18-.9 2.46-1.67 3.56-2.64 1.17-1.04 2.42-1.72 3.99-1.85.87-.07 1.19.3.98 1.08-.12.45-.38.91-.68 1.27-.79.97-1.66 1.86-2.43 2.84-.19.24-.2.72-.1 1.02.04.13.58.18.88.13.17-.03.46-.37.42-.49-.26-.87.27-.89.86-.89.71 0 1.1-.36 1.4-1.01.26-.57.75-1.05 1.19-1.52 1.04-1.12 2.03-2.32 3.21-3.29 1.4-1.14 2.97-2.06 4.47-3.08.61-.42 1.18-.93 1.84-1.24 3.72-1.76 7.64-2.71 11.77-2.78.52-.01.71.02.63.68-.19 1.48-.91 2.54-2.18 3.28-.47.27-.75 2.15-.29 2.4.24.14.93-.01 1.02-.21.62-1.39 2.28-1.88 2.76-3.45.21-.68 1.13-1.17 1.79-1.66 1.1-.81 2.16-1.8 3.41-2.27 2.82-1.06 5.52-2.37 8.67-2.59 2.96-.21 5.88-1.1 8.81-1.68.45-.09.9-.15 1.36-.18.77-.06 1.38.1 1.55 1.04.05.28.54.66.84.66.6.01 1.3-.05 1.8-.34 3.12-1.8 6.5-2.82 9.92-3.88 5.43-1.68 10.94-1.39 16.47-1.49 1.11-.02 2.31-.03 3.3-.44 2.11-.88 4.3-1.27 6.51-1.64 1.15-.19 2.28-.48 3.42-.71.32-.07.66-.16.98-.13.2.02.44.2.56.37.05.06-.16.33-.28.49-.36.47-.73.93-1.1 1.4-.18.23-.33.48-.53.69-1 1.04-1.99 2.09-3.02 3.09-.31.3-.72.6-1.13.7-1.06.26-1.87.82-2.61 1.6-.91.96-2.04 1.73-2.85 2.75-.75.94-1.08 2.22-1.82 3.17-.88 1.12-2 2.06-3.02 3.07-.37.36-.76.7-1.16 1.03-.37.31-.73.71-1.17.84-.62.19-.9.51-.95 1.13-.04.54-.1 1.08-.23 1.61-.09.34-.26.68-.49.95-.44.52-.91 1.03-1.43 1.47-1.04.89-2.13 1.73-3.2 2.59-.13.1-.29.18-.4.29-.99.99-1.95 2.02-2.96 2.98-.38.36-.91.57-1.34.9-.54.41-1.04.87-1.55 1.31-.19.16-.34.38-.56.49-1.64.88-3.34 1.67-4.93 2.63-1.21.73-2.26 1.72-3.43 2.52-.61.41-1.32.69-2 .97-1.34.55-1.69 1.73-.63 2.76.74.71.35.88-.26 1.02-1.04.24-2.1.42-3.17.56-.82.1-1.66.05-2.48.17-.32.04-.77.29-.86.55-.26.74-.75.89-1.44.92-.75.03-1.5.12-2.22.27-.33.07-.68.3-.89.56-.85 1.08-1.87 1.72-3.29 1.66-.87-.04-1.75-.03-2.62-.01-.19 0-.37.12-.56.19.12.14.23.3.36.42.18.17.4.3.57.49.81.88.61 1.9-.54 2.24-.82.25-1.28.72-1.79 1.38-.43.56-1.3.8-1.99 1.15-.29.15-.79.15-.89.36-.75 1.55-2.28 1.3-3.56 1.64-.67.18-1.33.42-1.99.62-.9.27-1.79.66-2.72.77-2.07.23-4.15.34-5.98.48z"/><path fill="#7B2DF7" d="M32.38 203.25c-1.18-.39-2.2-.61-3.12-1.06-1.17-.57-1.88-3.07-1.22-4.08.16-.24.55-.39.86-.47.35-.1.91.07 1.07-.13.34-.42.62-1 .65-1.52.03-.55-.34-1.11-.38-1.68-.07-1.01-.06-2.03.01-3.04.01-.18.48-.33.74-.5.02.26.05.53.05.79 0 .2-.16.46-.08.58.63.97 1.31 1.92 1.97 2.88.32.47.71.9.98 1.39.37.69.69 1.41.96 2.14.15.4.29.91.18 1.28-.25.78-.57 1.59-1.06 2.24-.39.52-1.06.8-1.61 1.18z"/><path fill="#FFF" d="M98.7 175.15c-2.14.17-3.32-1.34-4.55-2.64-.61-.64-.26-1.4.27-2.01.59-.68 1.13-.23 1.63.12 1.57 1.08 3.05 2.29 4.96 2.77.34.09.6.49.9.75-.34.21-.66.51-1.03.62-.71.19-1.45.26-2.18.39zm-59.43 3.88c.51.1.85.13 1.16.23.82.25 1.12 1.01.52 1.62-1.13 1.18-2.11 2.56-4.03 2.65-.65.03-1.31.61-1.9 1.02-.44.31-.78.46-1.16-.03-.33-.41-.38-.77.03-1.2.63-.65 1.2-1.36 1.81-2.03.16-.18.38-.31.59-.45.6-.41 1.2-.83 1.82-1.21.42-.24.86-.44 1.16-.6z"/><path d="M101.02 158.99c.42 1.23.43 1.24-.84 1.52-.61.14-1.23.22-1.84.33-.8.15-1.49-.06-2.03-.67-1.19-1.34-2.74-.93-4.21-.81-.2.02-.58.58-.51.69.21.36.53.79.89.88.8.21 1.65.21 2.46.36.32.06.61.31.91.47-.25.23-.47.6-.77.67-.84.2-1.72.43-2.57.36-.51-.04-1-.58-1.48-.91-.06-.04-.06-.15-.1-.23-.58-1.1-1.63-.72-2.45-.64-.98.09-2.17-.05-2.8 1.03-.32.55.14 1.07.89 1.1.83.03 1.66.03 2.49.08.37.03.74.12 1.08.26.19.09.43.34.43.52 0 .15-.28.41-.48.45-1.74.32-3.46.63-4.9-.89-.86-.91-2.08-.66-3.18-.7-.5-.02-1.06.18-1.21-.51-.15-.67.21-1.17.81-1.37.7-.23 1.45-.41 2.18-.47.66-.05 1.14-.12 1.2-.91.04-.5.35-.59.85-.65 2.14-.25 4.22-.74 6.1-1.91.54-.34 1.31-.38 1.98-.41.92-.04 1.98.52 2.44-.93.09-.3.85-.44 1.32-.55.73-.17 1.47-.29 2.21-.37.52-.06.98-.06 1.03-.78.01-.19.46-.42.74-.51.75-.25 1.53-.42 2.28-.67.53-.18 1.06-.28 1.32-.98.13-.33.8-.54 1.26-.66 1.36-.35 2.62-.85 3.89-1.52 1.16-.61 2.32-1.61 3.86-1.5.42.03.99-.3 1.29-.64.68-.74 1.45-1.06 2.43-.99.93.06 1.65-.18 2.15-1.13.19-.36 1-.63 1.47-.55 1.41.22 2.51-.06 3.68-.99.82-.65 2.1-.7 3.15-1.08.68-.24 1.29-.67 1.97-.89 1.29-.43 2.6-.83 3.93-1.13.62-.14 1.18-.16 1.52-.85.15-.29.67-.47 1.05-.57 1.01-.24 2.04-.4 3.06-.61.24-.05.6-.06.69-.21.92-1.54 2.59-1.31 3.98-1.66.69-.17 1.24-.34 1.81-.88.57-.54 1.57-.66 2.39-.92.47-.14.98-.17 1.47-.27.66-.13 1.59.2 1.64-1 .01-.14.46-.31.73-.38.76-.2 1.53-.39 2.31-.54.76-.14 1.6-.03 1.9-1.06.05-.18.47-.32.74-.37 1.1-.22 2.21-.37 3.3-.6.27-.06.52-.33.74-.54.3-.27.51-.72.85-.85.7-.25 1.45-.35 2.19-.48.8-.14 1.81.1 1.99-1.16.02-.15.48-.28.75-.34.97-.24 1.94-.49 2.92-.67.61-.11 1.24-.01 1.3-.94.01-.18.59-.41.93-.48.85-.17 1.73-.23 2.58-.41.37-.08.96-.29 1-.53.15-.84.78-.85 1.37-1.03 1.9-.57 3.75-.18 5.6.26.24.06.51-.04.77-.06-.21-.17-.4-.37-.62-.51-.17-.1-.44-.07-.58-.2-.36-.31-.68-.67-1.02-1.01.4-.15.78-.38 1.19-.44 1.22-.18 2.45-.28 3.68-.42.44-.05.82-.13.64-.78-.04-.15.39-.59.66-.64.94-.18 1.91-.19 2.84-.38.53-.11 1.18-.32 1.48-.72.42-.57.91-.79 1.54-.91.9-.17 1.79-.41 2.69-.53.78-.1 1.21-.46 1.75-1.07.49-.56 1.71-.5 2.63-.65.64-.1 1.33 0 1.95-.15.38-.09.8-.44.98-.78.31-.58.68-.87 1.35-.89 1.83-.07 3.48-.67 5.01-1.67.47-.31 1.1-.37 1.62-.63 1.44-.72 2.86-1.48 4.29-2.24 2.05-1.09 4.05-2.27 6.15-3.26 1.02-.48 2.2-.7 3.34-.84.38-.05.84.5 1.27.77-.26.33-.46.75-.8.98-2.85 1.94-5.77 3.75-9.01 5-1.2.47-2.3 1.27-3.36 2.04-2.13 1.55-4.4 2.79-6.9 3.65-.68.23-1.22.94-1.9 1.11-1.19.3-2.45.34-3.67.54-.46.08-1.1.19-1.28.5-.41.73-.97.92-1.72 1-1.44.15-2.74.37-3.9 1.58-.71.74-2.2.73-3.33 1.07-.29.09-.78.16-.82.33-.21.97-.97 1.04-1.71 1.17-.57.11-1.14.25-1.72.31-.58.07-1.01.22-1.25.84-.11.28-.49.58-.8.64-1.25.28-2.52.46-3.77.71-.26.05-.69.29-.69.44 0 .79-.53.83-1.08.92-.78.13-1.55.3-2.33.46-.8.16-1.49.32-2.02 1.18-.74 1.21-3.11 1.03-3.94-.12-.48-.67-2.14-1.07-2.84-.68-.49.27-.51.89.07 1.18.5.25 1.13.23 1.66.44.42.16.77.48 1.16.74-.31.3-.57.76-.94.88-1.33.44-2.59.89-3.83-.55-.52-.6-1.81-.58-2.76-.76-.19-.04-.57.24-.63.45-.06.21.1.6.29.73.32.23.73.35 1.12.48.23.08.53.02.73.14.43.26.82.59 1.22.9-.39.19-.77.43-1.19.55-.6.17-1.22.25-1.84.35-.94.15-1.78.25-2.18-1-.24-.75-2.51-1.05-3.17-.53-.49.38-.39.99.28 1.26.61.24 1.31.26 1.92.5.44.17.81.52 1.2.79-.41.22-.8.52-1.24.64-.6.16-1.24.14-1.85.28-.67.15-1.09-.07-1.5-.59-.77-.98-2.31-1.38-3.37-.91-.23.1-.49.38-.52.6-.02.22.18.62.38.69.54.2 1.12.27 1.69.38.36.07.77.06 1.08.23.59.33.54 1.05-.11 1.21-1.05.25-2.13.39-3.2.44-.29.01-.67-.41-.88-.73-.63-.94-3.09-1.37-3.88-.6-.18.17-.34.57-.25.75.12.26.45.52.73.58.64.15 1.34.08 1.97.28.52.16.95.57 1.43.87-.49.23-.97.51-1.49.67-.47.15-.98.15-1.48.23-.82.12-1.47.08-1.66-.98-.06-.33-.56-.81-.89-.84-1.03-.08-2.07 0-3.1.08-.3.02-.73.2-.86.43-.63 1.13-1.69 1.18-2.78 1.28-1.09.1-2.09.39-2.91 1.26-.33.35-.94.5-1.45.59-1.49.25-2.95.48-4.09 1.63-.26.26-.76.3-1.16.38-1.31.26-2.59.52-3.63 1.5-.37.35-1.06.43-1.62.52-1.21.19-2.34.49-3.28 1.38-.36.34-.95.47-1.46.58-1.42.32-2.86.51-3.87 1.79-.23.3-.8.41-1.23.47-1.44.2-2.86.28-4.01 1.44-.42.42-1.32.4-2.01.51-1.22.19-2.54.14-2.99 1.74-.06.2-.71.27-1.09.35-.77.16-1.56.22-2.3.45-.26.08-.59.56-.56.82.03.24.47.56.77.62.69.12 1.41.13 2.11.14.79.01 1.39-.29 1.52-1.16.1-.7.56-.84 1.17-.84.92-.01 1.83-.06 2.75-.07.57-.01.98-.19 1.07-.81.11-.74.61-.9 1.26-.92 1.04-.03 2.08-.09 3.12-.13.2-.01.46-.04.61.06.36.25.68.56 1.02.85-.32.21-.62.5-.97.61-.71.22-1.45.43-2.19.49-1.5.12-2.76.58-4 1.52-.67.5-1.82.45-2.76.48-.61.02-.98 0-1.19.72-.11.37-.65.79-1.05.85-1.27.19-2.56.23-3.85.33-.46-.45-.81-1.05-1.55-1.09-.23-.01-.57-.08-.6.23-.02.21.31.21.51.22.64.01 1.25.06 1.68.61z"/><path d="M133.25 147.19c-.79-.13-1.45-.29-.7.66.06.07-.21.58-.38.61-1.3.21-2.61.4-3.93.5-.27.02-.58-.36-.87-.56.23-.27.43-.57.7-.79.18-.15.45-.24.69-.26 1.57-.12 2.94-.56 4.17-1.68.56-.5 1.63-.49 2.48-.6.73-.09 1.29-.26 1.74-.96.29-.44.99-.83 1.52-.86 1.01-.05 2.03.17 3.04.33.19.03.34.32.51.49-.19.13-.36.35-.57.39-1.3.24-2.6.48-3.92.64-.47.06-.8-.02-.4.6.09.14-.1.67-.24.7-1.33.32-2.67.56-3.84.79zm-35.99-9.88c.53.24.89.35 1.19.55.18.12.43.43.39.56-.08.23-.35.5-.57.54-1.08.18-1.87.65-2.11 1.8-.02.1-.16.27-.24.27-1.69-.05-2.11 1.68-3.28 2.36-.41.24-.58.87-.9 1.29-.11.14-.31.22-.47.32-.06-.18-.17-.35-.17-.53-.01-.48-.05-.98.06-1.43.09-.37.34-.74.62-1.01 1.16-1.14 2.33-2.28 3.55-3.36.6-.51 1.31-.92 1.93-1.36zm85.55 9.31c-.65-.13-1.3-.24-1.93-.4-.16-.04-.26-.27-.39-.41.16-.1.31-.26.49-.3 1.13-.25 2.27-.5 3.41-.7.57-.1.97-.22 1.18-.88.11-.36.67-.68 1.09-.8.5-.14 1.08-.12 1.61-.04.31.04.59.32.88.49-.24.3-.41.73-.72.89-.88.44-1.91.63-2.72 1.16-.91.6-1.78 1.04-2.9.99zm24.26-43.39c.25.05.55.06.8.19.2.1.45.32.47.52.02.17-.2.45-.39.54-1.08.52-2.09 1.03-2.8 2.15-.29.46-1.33.6-2.04.62-.75.02-1.13-1-.55-1.45 1.11-.86 2.3-1.62 3.49-2.37.26-.18.64-.14 1.02-.2zm-39.92 51.26c.17.12.39.4.67.47.44.1.92 0 1.36.1.25.05.45.33.67.51-.24.2-.47.52-.73.55-.29.04-.64-.13-.92-.29-.9-.5-1.7-.42-2.53.23-.91.72-2.12.17-2.23-1.02-.02-.23.45-.71.72-.73.84-.07 1.56-.19 2.29-.75.59-.47.97-.08.7.93zm-41.35-5.43c.04 0 .09-.01.12 0 .62.33 1.24.66 1.87 1-.55.22-1.08.5-1.65.65-.84.22-1.7.45-2.55.47-.48.01-.97-.4-1.45-.62.29-.35.51-.9.87-1.02.9-.28 1.85-.37 2.79-.53v.05zm-6.12 2c.92.2 1.65.34 2.37.53.16.04.28.25.42.38-.14.14-.25.38-.41.4-1.39.25-2.78.48-4.17.66-.23.03-.7-.21-.7-.34-.01-.28.13-.74.34-.84.71-.32 1.5-.55 2.15-.79zm23.18-7.94c-.16-.13-.78-.49-.74-.64.16-.5.51-1.27.87-1.32.96-.12 1.98.02 2.96.17.3.05.54.44.81.68-.27.2-.52.51-.83.58-.93.22-1.87.33-3.07.53zm-8.57-19.62c.38.34.59.53.81.73-.56.3-1.11.63-1.69.86-.11.04-.37-.27-.56-.43.45-.36.9-.73 1.44-1.16zm-45.05 23.71c-.17-.28-.41-.5-.4-.72 0-.31.14-.64.3-.92.23-.4.53-.76.79-1.13-.02.41-.03.81-.05 1.22-.02.36 0 .73-.09 1.08-.04.15-.29.25-.55.47zm84.04 1.05c-.47-.08-.92-.13-1.36-.23-.13-.03-.22-.19-.33-.29.14-.07.27-.2.41-.21.91-.02 1.83-.02 2.74 0 .13 0 .26.16.39.24-.12.08-.23.21-.37.24-.49.11-.99.17-1.48.25z"/><path fill="#FFF" d="M101.02 158.99c-1-.04-2-.03-2.98-.13-.31-.03-.58-.38-.86-.59.26-.29.49-.77.8-.82.8-.15 1.67-.27 2.46-.12.92.18.48 1.08.56 1.68-.01 0 .02-.02.02-.02zm73.73-30.54c-.21.12-.46.37-.61.32-.5-.17-.96-.44-1.44-.68.26-.23.57-.69.78-.65.46.08.87.42 1.3.65l-.03.36z"/></svg>