<svg xmlns="http://www.w3.org/2000/svg" viewBox="0 0 1044.31 1044.31"><circle fill="#FFF" cx="522.15" cy="522.15" r="521.51"/><path fill="#CC222E" d="M429.1 356.87c-7.2 8.68-14.29 17.02-20.09 26.34-12.09 19.42-20.93 40.1-22.55 63.18-2.37 33.58 11.56 56.12 43.05 68.71 19.75 7.89 40.72 11.96 61.31 17.09 19.32 4.81 38.74 9.25 57.8 15.08 4.94 1.51 9.69 3.52 14.11 6.22 10.79 6.59 13.84 14.47 10.28 26.7-4.56 15.64-14.96 25.83-29.67 32.26-16.51 7.22-33.98 9-51.64 9.62-12.83.45-25.64-.22-38.09-3.8-3.17-.91-6.35-2.04-9.28-3.54-11.26-5.8-13.96-12.41-10.44-24.58 2.62-9.09 5.07-18.23 7.74-27.3.71-2.42.79-3.5-2.34-3.48-27.99.1-55.99.1-83.98-.01-2.79-.01-3.68 1.17-4.32 3.54-2.7 9.93-5.56 19.81-8.33 29.72-.35 1.25-.38 2.61-1.75 3.71-9.78-16.48-19.74-32.8-30.38-48.68-22.65-33.81-46.79-66.45-76.27-94.74-13.62-13.06-28.1-25.06-45.92-32.14-3.97-1.58-8.17-2.55-12.92-4.01 84.99-20.09 169.34-39.99 253.68-59.89z"/><path fill="#CC222E" d="M616.13 312.74c93.42-22.04 185.45-43.76 278.68-65.76-78.27 93.38-155.75 185.83-233.75 278.88-6.71-25.11-24.62-37.58-46.85-45.67-25.04-9.12-51.2-14.05-76.85-20.89-15.39-4.1-31-7.47-46.24-12.08-19.7-5.95-23.64-17.37-15.59-36.22 6.83-15.97 20.47-24.08 36.36-28.65 21.89-6.3 44.02-6.12 66.14-1 5.05 1.17 9.78 3.26 14.16 6.05 12.18 7.74 16.22 18.11 12.45 32.06-2.47 9.13-4.95 18.26-7.64 27.32-.92 3.1-.91 4.44 3.01 4.42 25.32-.15 50.65-.09 75.98-.06 2.12 0 3.86-.04 4.49-2.7 3.79-15.96 10.19-31.3 11.42-47.87 1.78-23.98-5.45-44.58-23.06-61.26-14.53-13.78-32.08-21.68-52.71-26.57z"/><path fill="#807F7F" d="M396.17 821.7c-14.91-40.78-35.08-78.23-57.99-114.29-29.77-46.86-63.48-90.73-101.16-131.47-35.21-38.08-72.69-73.67-116.74-101.61-18.28-11.6-37.44-21.4-58.89-25.88-1.74-.36-3.51-.58-5.9-.97 16.91-4.02 33.25-7.92 49.6-11.78 11.73-2.77 23.58-5.1 35.18-8.33 5.98-1.67 11.06-.19 16.33 1.85 20.18 7.79 37.1 20.61 52.99 34.88 38.31 34.41 68.91 75.19 96.4 118.39 27.31 42.93 50.37 88.05 67.78 135.94 10.14 27.89 17.77 56.43 21.23 85.97.65 5.58.77 11.23 1.17 17.3z"/><path fill="#CC222E" d="M527.67 685.01c-36.27 43.28-71.82 85.68-107.77 128.57 3.52-32.84-7.51-62.08-17.97-91.39-5.52-15.47-12.21-30.49-19.51-46.41 23.58 9.53 47.48 13.47 71.89 14.99 24.35 1.52 48.4-.71 73.36-5.76z"/></svg>